<?xml version="1.0" encoding="UTF-8" standalone="no"?>
<svg
  width="32"
  height="32"
  viewBox="0 0 32 32"
  fill="none"
  version="1.1"
  id="svg1"
  sodipodi:docname="favicon.svg"
  inkscape:version="1.4 (e7c3feb1, 2024-10-09)"
  inkscape:export-filename="favicon.png"
  inkscape:export-xdpi="3840"
  inkscape:export-ydpi="3840"
  xmlns:inkscape="http://www.inkscape.org/namespaces/inkscape"
  xmlns:sodipodi="http://sodipodi.sourceforge.net/DTD/sodipodi-0.dtd"
  xmlns="http://www.w3.org/2000/svg"
  xmlns:svg="http://www.w3.org/2000/svg"
>
  <defs id="defs1" />
  <sodipodi:namedview
    id="namedview1"
    pagecolor="#ffffff"
    bordercolor="#000000"
    borderopacity="0.25"
    inkscape:showpageshadow="2"
    inkscape:pageopacity="0.0"
    inkscape:pagecheckerboard="0"
    inkscape:deskcolor="#d1d1d1"
    inkscape:zoom="18.909091"
    inkscape:cx="12.084135"
    inkscape:cy="10.3125"
    inkscape:window-width="2560"
    inkscape:window-height="1387"
    inkscape:window-x="2"
    inkscape:window-y="25"
    inkscape:window-maximized="0"
    inkscape:current-layer="svg1"
  />
  <rect style="fill: #ffffff" id="rect1" width="22.528847" height="23.586538" x="4.7067308" y="2.5384614" />
  <path
    fill-rule="evenodd"
    clip-rule="evenodd"
    d="M 1.743,2.6012379 C 1.743,1.1646115 2.9035511,0 4.3351688,0 H 27.664688 c 1.431617,0 2.592183,1.1646115 2.592183,2.6012379 V 26.012379 c 0,1.436626 -1.160566,2.601252 -2.592183,2.601252 H 12.547857 L 8.6763382,31.821524 C 8.1737645,32.237962 7.4150178,31.879147 7.4150178,31.225223 V 28.613631 H 4.3351688 C 2.9035511,28.613631 1.743,27.449005 1.743,26.012379 Z M 7.4130027,4.7276243 H 19.874954 c 2.691272,0 4.873167,2.1894373 4.873167,4.890231 0,2.1642747 -1.401013,4.0001737 -3.342613,4.6441847 2.270225,0.416621 3.990772,2.411735 3.990772,4.810319 0,2.700839 -2.181743,4.890215 -4.873166,4.890215 H 7.4132148 V 14.508102 H 7.4130027 Z M 17.777299,9.1282408 h -5.828482 v 2.9341452 h 5.828482 c 0.807397,0 1.46192,-0.656829 1.46192,-1.467065 0,-0.810252 -0.654523,-1.4670802 -1.46192,-1.4670802 z m -5.828482,6.5204812 h 6.314071 c 0.897091,0 1.62449,0.729791 1.62449,1.630172 0,0.90023 -0.727399,1.630022 -1.62449,1.630022 h -6.314071 z"
    fill="#1f1f1f"
    id="path1"
    style="stroke-width: 1.51775"
  />
</svg>
